{"asset":{"generator":"Modov11.2","version":"2.0"},"scene":0,"scenes":[{"nodes":[0,1,2]}],"nodes":[{"name":"Fusion Item  Mesh","mesh":0},{"name":"Camera","matrix":[1.0,0.0,0.0,0.0,0.0,0.9961947202682495,-0.08715574443340302,0.0,0.0,0.08715574443340302,0.9961947202682495,0.0,0.0,0.75,4.0,1.0],"camera":0},{"name":"Texture Group"}],"meshes":[{"primitives":[{"indices":1,"mode":4,"material":1,"attributes":{"POSITION":0,"NORMAL":2,"COLOR_0":3,"TEXCOORD_0":4}}]}],"buffers":[{"byteLength":1761144,"uri":"Jet.bin"}],"bufferViews":[{"buffer":0,"byteLength":304284},{"buffer":0,"byteLength":544008,"byteOffset":304284},{"buffer":0,"byteLength":304284,"byteOffset":848292},{"buffer":0,"byteLength":405712,"byteOffset":1152576},{"buffer":0,"byteLength":202856,"byteOffset":1558288}],"accessors":[{"bufferView":0,"type":"VEC3","componentType":5126,"count":25357,"min":[-4.499340057373047,-1.7316441535949708,-5.503732681274414],"max":[4.329549789428711,1.1956543922424317,5.505825996398926]},{"bufferView":1,"type":"SCALAR","componentType":5125,"count":136002},{"bufferView":2,"type":"VEC3","componentType":5126,"count":25357},{"bufferView":3,"type":"VEC4","componentType":5126,"count":25357},{"bufferView":4,"type":"VEC2","componentType":5126,"count":25357}],"materials":[{"pbrMetallicRoughness":{"metallicFactor":0.5,"roughnessFactor":0.5}},{"name":"Fusion Surface","emissiveFactor":[0.0,0.0,0.0],"alphaMode":"OPAQUE","doubleSided":false,"pbrMetallicRoughness":{"baseColorFactor":[1.0,1.0,1.0,1.0],"metallicFactor":1.0,"roughnessFactor":1.0}}],"cameras":[{"name":"Camera","type":"perspective","perspective":{"znear":0.01,"yfov":0.8726}}]}